# xmcd CD database file
# Copyright (C) 1993-1998 Ti Kan
#
# Track frame offsets:
#	150
#	8405
#	17025
#	38115
#	48140
#	64505
#	79750
#	86580
#	98543
#	108368
#	118793
#	134610
#	152733
#	170443
#	181560
#
# Disc length: 2693 seconds
#
# Revision: 2
# Processed by: cddbd v1.4PL0 Copyright (c) Steve Scherf et al.
# Submitted via: Gronk 1.4
#
DISCID=a70a830f
DTITLE=The Acapellas - Acapellas, The
DYEAR=1900
DGENRE=blues
TTITLE0=Wadin´ In The Water
TTITLE1=Amazing Grace
TTITLE2=Precious Lord
TTITLE3=I Just Couldn`t Be Contended
TTITLE4=Go Down Moses
TTITLE5=Oh Happy Day
TTITLE6=Elijah Rock/Josuah Fit The Battle Of Jericho
TTITLE7=This Little Light Of Mine
TTITLE8=I Got Shoes
TTITLE9=Jesus Says
TTITLE10=Medley
TTITLE11=Mary
TTITLE12=Sometimes I Fell Like A Motherless Child
TTITLE13=My Living
TTITLE14=Kumbaja My Lord
EXTD=
EXTT0=
EXTT1=
EXTT2=
EXTT3=
EXTT4=
EXTT5=
EXTT6=
EXTT7=
EXTT8=
EXTT9=
EXTT10=
EXTT11=
EXTT12=
EXTT13=
EXTT14=
PLAYORDER=
